<?xml version="1.0" encoding="UTF-8" standalone="no"?>
<!-- Created with Inkscape (http://www.inkscape.org/) -->

<svg
   version="1.1"
   id="svg1"
   width="400"
   height="400"
   viewBox="0 0 400 400"
   sodipodi:docname="PlayedOffMan.svg"
   inkscape:version="1.4.2 (f4327f4, 2025-05-13)"
   xmlns:inkscape="http://www.inkscape.org/namespaces/inkscape"
   xmlns:sodipodi="http://sodipodi.sourceforge.net/DTD/sodipodi-0.dtd"
   xmlns="http://www.w3.org/2000/svg"
   xmlns:svg="http://www.w3.org/2000/svg">
  <defs
     id="defs1" />
  <sodipodi:namedview
     id="namedview1"
     pagecolor="#505050"
     bordercolor="#ffffff"
     borderopacity="1"
     inkscape:showpageshadow="0"
     inkscape:pageopacity="0"
     inkscape:pagecheckerboard="1"
     inkscape:deskcolor="#505050"
     inkscape:zoom="1.9357048"
     inkscape:cx="202.25191"
     inkscape:cy="240.48088"
     inkscape:window-width="2560"
     inkscape:window-height="1334"
     inkscape:window-x="2869"
     inkscape:window-y="-11"
     inkscape:window-maximized="1"
     inkscape:current-layer="g1" />
  <g
     inkscape:groupmode="layer"
     inkscape:label="Image"
     id="g1">
    <path
       style="fill:#000000"
       d="m 138.86085,366.83031 c -11.32189,-5.17145 -1.60832,-18.5023 15.90215,-21.824 6.43953,-1.22157 6.43953,-1.22157 12.38956,-23.76805 7.08946,-26.8641 9.19111,-23.52865 -13.93316,-22.11282 -27.9526,1.71144 -36.35876,-0.38472 -46.94983,-11.70743 C 96.877271,277.37689 96.125381,274.45012 93.494751,237.69178 90.190621,191.52255 91.702791,197.25377 81.182841,191.02901 54.948698,175.50604 34.808933,145.90356 30.445368,116.45244 28.029655,100.148 27.61386,99.198283 21.269664,95.494157 9.2048833,88.450008 1.2315903,73.247689 6.0178913,66.414287 c 2.028819,-2.896545 7.4142607,-3.017058 9.9432957,-0.222506 2.872343,3.173904 3.415983,2.337343 1.282859,-1.974084 -4.676823,-9.452698 -2.487649,-17.025916 4.921644,-17.025916 3.703663,0 10.295497,5.450044 10.295497,8.512185 0,0.75338 0.3375,1.578611 0.75,1.833848 0.4125,0.255236 0.75,-3.494737 0.75,-8.333274 0,-24.717137 17.990055,-15.503271 18.691213,9.572974 0.263571,9.426387 0.90218,10.389247 2.761913,4.164267 3.810812,-12.755716 10.297668,-17.369749 15.954528,-11.348293 6.36012,6.770032 0.88588,25.75643 -11.421705,39.614113 -8.985722,10.117449 -5.528862,31.841059 8.444335,53.065929 4.30106,6.53318 18.60466,21.83981 19.44212,20.80548 0.17244,-0.21298 -0.49525,-10.96223 -1.48374,-23.88723 -2.92872,-38.2942 -1.45119,-42.095301 23.752969,-61.106831 32.14929,-24.250258 38.26507,-26.610059 72.34949,-27.91637 13.47988,-0.516627 48.62628,-1.86537 78.1031,-2.997206 64.44643,-2.474582 65.77909,-2.308293 77.56642,9.678721 9.11207,9.266435 9.11519,9.282047 13.84265,69.288116 1.40593,17.84553 2.65534,32.47165 2.77647,32.50248 44.71378,11.37999 57.06527,56.03946 22.41634,81.05109 -5.11823,3.69464 -5.48991,4.22902 -4.86868,7 3.96431,17.68264 -11.30267,32.5926 -27.18859,26.55278 -2.01232,-0.76508 -5.25446,0.0862 -16.86096,4.42708 -7.90327,2.95586 -17.09805,6.17841 -20.43285,7.16122 -6.06325,1.78692 -6.06325,1.78692 -6.65626,17.82292 -0.44352,11.99394 -1.23522,18.80408 -3.14088,27.01776 -1.40133,6.03996 -2.54788,11.04085 -2.54788,11.11309 0,0.0722 2.81266,0.3571 6.25036,0.63305 26.87989,2.15766 31.08053,22.61779 5.00689,24.38715 -37.58942,2.55083 -43.65396,-1.52733 -37.84038,-25.44611 8.61619,-35.44959 7.92619,-51.64081 -2.16687,-50.84684 -4.2625,0.33531 -20.125,1.35616 -35.25,2.26856 -32.8277,1.9803 -27.16523,-3.36617 -37.36291,35.27787 -9.07879,34.404 -9.45038,35.26856 -15.94539,37.0993 -6.73137,1.89737 -35.53026,2.38895 -39.29204,0.6707 z m 19.17365,-78.6831 c 7.89131,-0.64079 13.1599,-1.51052 13.6299,-2.25 1.27326,-2.00327 0.89097,-4.70543 -0.6657,-4.70543 -11.96508,0 -27.07359,-15.39224 -29.44925,-30.00229 -2.3145,-14.2339 -11.20155,-139.5966 -11.46595,-161.741218 -0.0673,-5.63393 -0.2676,-10.24643 -0.44518,-10.25 -4.03566,-0.08114 -32.383369,23.833408 -34.626449,29.211388 -1.97028,4.7239 -0.28426,61.09961 1.90027,63.53947 0.12673,0.14155 4.129829,1.21024 8.895789,2.37489 20.68226,5.05406 20.34463,27.11611 -0.39227,25.63239 -6.739209,-0.48219 -6.739209,-0.48219 -6.299079,5.12659 6.900239,87.93319 6.467649,87.3233 58.917919,83.06421 z m -38.88018,-43.74203 c -8.82242,-9.74865 -5.69217,-37.08336 3.85837,-33.69305 6.25936,2.22199 9.75551,19.15031 5.99089,29.00783 -2.40289,6.29187 -6.59191,8.28456 -9.84926,4.68522 z m -8.56551,-91.03417 c -8.15698,-11.45542 -2.62707,-37.39953 6.71549,-31.5064 4.64211,2.92817 7.58972,17.35556 5.28544,25.87014 -2.2194,8.20093 -8.18103,11.00082 -12.00093,5.63626 z m 134.77661,128.78235 c 29.70497,-2.09931 28.36529,-1.90745 27.1418,-3.88709 -1.51254,-2.44736 -60.97794,0.51702 -63.29603,3.15533 -3.36196,3.82639 -6.683,3.75917 36.15423,0.73176 z m 71.59577,-7.10681 c 1.47008,-0.67376 1.51465,-0.77596 0.16821,-0.3857 -1.00748,0.29201 -4.94498,0.53093 -8.75,0.53093 -6.08275,0 -6.91821,0.22505 -6.91821,1.86359 0,1.92034 9.65805,0.66865 15.5,-2.00882 z m -98.23842,-3.44272 c 5.63113,-0.30131 33.56473,-1.60847 62.07466,-2.90479 62.3393,-2.83451 63.87875,-3.24041 69.23701,-18.25523 2.73292,-7.65816 -8.14553,-167.505917 -12.03279,-176.809431 -3.04002,-7.275799 -10.92521,-13.568637 -19.52498,-15.582073 -3.06385,-0.71733 -79.3303,1.410045 -142.51548,3.975324 -24.53208,0.995987 -30.05315,3.276073 -35.85944,14.809178 -3.27848,6.512072 -3.4455,1.932434 3.87886,106.354972 6.84058,97.52543 2.40831,92.28252 74.74216,88.41205 z m 92.34793,-28.45004 c -9.30318,-8.1683 -5.31133,-26.11929 6.15013,-27.6566 8.44243,-1.13236 14.23288,5.04935 14.23288,15.19459 0,13.19251 -11.52543,20.23907 -20.38301,12.46201 z m -71.14479,-11.38223 c -21.47183,-7.06885 -36.4783,-27.343 -34.01017,-45.94866 1.6282,-12.274 6.49397,-14.59018 21.87884,-10.41467 12.54257,3.40411 30.03603,3.10239 42.16661,-0.72727 21.81741,-6.88782 29.3464,-2.46845 28.25985,16.58799 -1.61113,28.25686 -31.79371,49.22728 -58.29513,40.50261 z m 25.01774,-8.11723 c 13.2078,-3.44019 14.91895,-7.53926 6.24617,-14.96283 -12.83023,-10.98221 -47.811,-11.04286 -47.01734,-0.0815 0.79161,10.93294 23.8665,19.44746 40.77117,15.04435 z m -65.48246,-64.5321 c -11.17564,-4.672 -14.83711,-24.83999 -6.34245,-34.93531 12.01036,-14.2735 28.91316,-0.76717 25.96431,20.74701 -1.50256,10.96238 -10.96743,17.80629 -19.62186,14.1883 z m 88.3516,-3.04764 c -13.13968,-3.70327 -15.57958,-32.05948 -3.30472,-38.40705 11.86098,-6.13355 21.47197,3.36836 20.79852,20.56247 -0.53105,13.55853 -7.4954,20.66252 -17.4938,17.84458 z M 178.81993,103.68425 c -4.05,-10.554128 18.88551,-24.17406 27.98757,-16.620024 3.81877,3.169303 0.85866,7.127555 -5.33023,7.127555 -3.88238,0 -8.18761,2.18722 -14.08044,7.153389 -4.82351,4.06502 -7.62176,4.82815 -8.5769,2.33908 z m 121.72491,-3.903428 c -4.01635,-4.275209 -9.37787,-7.4419 -14.54275,-8.589427 -12.03717,-2.674404 -9.46341,-9.923042 3.0815,-8.678597 10.36141,1.027844 19.75695,8.632537 19.18218,15.525948 -0.39502,4.737754 -4.11757,5.577674 -7.72093,1.742076 z m 69.80402,113.886108 c 6.92089,-7.88245 4.25321,-14.88728 -8.73215,-22.92902 -5.4671,-3.38573 -5.12707,-4.71096 -3.58033,13.95387 0.72925,8.8 1.34816,16.60031 1.37536,17.33403 0.0599,1.61686 6.49944,-3.30463 10.93712,-8.35888 z"
       id="path29" />
    <path
       style="fill:#f6ab42;stroke-width:1.03322;fill-opacity:1"
       d="m 121.02802,287.27024 c -8.2958,-2.95738 -12.67395,-9.99418 -15.49792,-24.90911 -1.91061,-10.091 -4.78384,-39.80689 -5.08768,-52.61841 l -0.22053,-9.29893 6.04258,-0.17504 c 7.23216,-0.2095 11.37488,-1.75763 13.53815,-5.05917 3.6134,-5.51476 0.57996,-14.2279 -6.3656,-18.28433 -1.82012,-1.063 -6.23553,-2.72216 -9.81204,-3.68702 l -6.502734,-1.75428 -0.694109,-4.63457 c -0.38176,-2.54901 -1.033896,-15.57132 -1.449191,-28.93847 -0.565921,-18.21532 -0.436365,-25.26962 0.51715,-28.15881 0.873007,-2.64523 3.826851,-6.17283 9.413144,-11.241544 8.49222,-7.7054 22.24684,-18.436363 23.63116,-18.436363 0.44112,0 1.10442,8.252807 1.47401,18.339573 0.66422,18.128024 4.40977,75.342564 7.42341,113.395384 3.56642,45.03255 4.3577,48.41825 13.66561,58.47192 6.00779,6.48912 9.3793,8.72663 16.22413,10.76716 8.999,2.68272 5.06939,5.20055 -10.40709,6.66815 -15.51706,1.47145 -31.05511,1.27831 -35.89245,-0.44614 z m 6.76203,-44.20632 c 4.75093,-6.66087 3.37275,-26.16228 -2.20568,-31.2107 -3.31477,-2.99982 -7.48964,-1.70268 -9.8344,3.05558 -2.38368,4.83722 -2.77438,17.34407 -0.72903,23.33714 2.88274,8.44671 8.63327,10.61648 12.76911,4.81798 z m -9.33149,-87.64817 c 7.10933,-3.8048 6.49203,-28.89729 -0.82892,-33.69416 -3.46572,-2.27083 -7.18851,-0.45078 -9.39124,4.5913 -2.42697,5.55538 -2.33382,19.25192 0.16335,24.01995 3.44752,6.58259 5.40552,7.5722 10.05681,5.08291 z"
       id="path31" />
    <path
       style="fill:#f6ab42;fill-opacity:1;stroke-width:1.03322"
       d="m 166.61536,270.78206 c -11.6324,-4.15164 -15.53681,-12.21908 -18.32381,-37.86138 -2.03194,-18.69516 -8.43962,-114.25148 -8.96761,-133.732003 l -0.53208,-19.631092 3.44807,-5.147198 c 4.55917,-6.805814 9.55936,-9.43318 20.49149,-10.76731 15.29864,-1.867006 149.85187,-6.071194 156.19875,-4.880513 5.32209,0.998431 13.1162,6.56612 16.36653,11.691361 2.15974,3.405547 3.10268,6.71128 3.99708,14.01283 3.95015,32.247695 10.47461,128.337985 10.42694,153.564635 -0.0252,13.34429 -1.57411,18.64422 -6.60534,22.60178 -5.6401,4.4365 -15.56049,5.41061 -92.22595,9.05585 -60.95892,2.89843 -78.57538,3.12693 -84.27407,1.09304 z m 160.19812,-27.27375 c 6.42187,-5.99895 6.85058,-18.13255 0.87117,-24.6572 -2.83732,-3.09606 -3.9844,-3.61563 -8.12045,-3.67816 -6.09278,-0.0921 -9.69824,2.21127 -12.24651,7.82382 -2.52012,5.55054 -2.51045,10.35831 0.0314,15.60808 3.91901,8.09404 13.47247,10.50073 19.46439,4.90346 z m -55.26877,-13.87817 c 10.0782,-4.78613 18.19906,-12.64171 22.44222,-21.70913 6.04221,-12.91191 6.52585,-26.93895 1.13679,-32.97037 -4.08053,-4.56689 -9.50864,-4.88499 -22.94966,-1.34486 -15.05739,3.96585 -29.09251,4.49877 -42.70653,1.62159 -5.63114,-1.19009 -11.72898,-2.16379 -13.55076,-2.16379 -5.08579,0 -8.41843,3.28182 -9.85604,9.70573 -4.40774,19.69587 11.14317,42.05527 34.67846,49.86135 2.54608,0.84446 7.71695,1.26119 13.46782,1.08536 8.29657,-0.25366 10.22517,-0.70816 17.3377,-4.08588 z m -59.3084,-71.79131 c 4.33628,-3.15472 7.32196,-10.15299 7.32196,-17.16229 0,-8.39161 -1.82607,-13.76797 -6.25902,-18.42797 -3.42542,-3.60087 -4.23015,-3.94541 -9.21518,-3.94541 -5.04874,0 -5.79403,0.33225 -9.8502,4.39117 -7.47444,7.4795 -8.37862,19.5257 -2.25047,29.98259 1.4859,2.53549 4.20996,5.36173 6.09086,6.31932 4.13964,2.10755 10.37466,1.59799 14.16205,-1.15741 z m 86.65381,-2.9521 c 4.14467,-2.71569 6.37965,-9.19758 6.37965,-18.5023 0,-10.00458 -2.31991,-16.00095 -7.38536,-19.08928 -4.35029,-2.6523 -8.10355,-2.64234 -13.35239,0.0354 -5.62445,2.86938 -8.09729,8.36132 -8.11412,18.02066 -0.0177,10.19309 3.34864,17.35667 9.49402,20.20292 4.80578,2.22583 8.88253,2.01618 12.9782,-0.66741 z M 186.95403,102.27897 c 6.80435,-5.193874 11.9486,-7.739762 15.63905,-7.739762 4.12137,0 7.56062,-3.456471 5.97158,-6.001469 -6.03785,-9.670129 -30.33501,0.152834 -30.33501,12.263971 0,6.35062 1.91511,6.6749 8.72438,1.47726 z m 120.2209,-0.7139 c 0.68193,-0.68192 1.23986,-2.738508 1.23986,-4.570193 0,-7.391033 -10.95907,-14.825369 -21.88202,-14.84416 -5.56717,-0.0096 -9.11444,1.59451 -9.11444,4.121578 0,1.350654 5.22713,5.164308 7.11354,5.189958 2.87444,0.03909 9.74964,3.64915 14.42343,7.573527 4.80516,4.03467 6.26503,4.4839 8.21963,2.52929 z"
       id="path32" />
    <path
       style="fill:#f6ab42;fill-opacity:1;stroke-width:0.258304"
       d="m 208.12832,283.99703 c -0.31965,-0.12848 -0.58118,-0.29807 -0.58118,-0.37685 0,-0.0788 0.47438,-0.65789 1.05417,-1.28689 0.92935,-1.00822 1.27343,-1.19099 2.90592,-1.54358 6.9187,-1.49429 27.09073,-2.90712 45.11764,-3.16001 11.54673,-0.16198 14.86983,0.0194 15.80133,0.86238 1.59062,1.43949 0.59316,1.56855 -27.55415,3.56511 -32.57565,2.31068 -35.44434,2.46213 -36.74373,1.93984 z"
       id="path33" />
    <path
       style="fill:#f6ab42;fill-opacity:1;stroke-width:0.258304"
       d="m 301.99369,277.49152 c -0.26407,-0.2011 -0.437,-0.58954 -0.3843,-0.86321 0.16971,-0.88124 1.29919,-1.15521 5.30526,-1.28686 2.10368,-0.0691 5.1616,-0.17444 6.79537,-0.23402 l 2.9705,-0.10834 -1.29152,0.5271 c -4.11873,1.68096 -12.20993,2.86808 -13.39531,1.96533 z"
       id="path34" />
    <path
       style="fill:#f6ab42;fill-opacity:1;stroke-width:0.258304"
       d="m 248.23,224.19928 c -4.85586,-0.78174 -10.06293,-2.36468 -13.59273,-4.13216 -4.19546,-2.10079 -8.05214,-5.48745 -9.41032,-8.26346 -0.79242,-1.61965 -1.07339,-3.82241 -0.65087,-5.10266 0.37511,-1.13659 2.11043,-2.77054 3.91197,-3.68345 6.57414,-3.33137 21.29579,-3.19862 31.95858,0.28819 5.6209,1.83807 9.5068,4.14479 12.81431,7.60672 1.97013,2.06211 2.78924,3.33509 3.11396,4.83941 0.24007,1.11215 -0.6063,2.88 -1.82319,3.80817 -2.04639,1.56086 -6.51593,3.26975 -11.50562,4.39909 -2.67763,0.60603 -11.64096,0.75132 -14.81609,0.24015 z"
       id="path35" />
    <path
       style="fill:#d55b59;fill-opacity:1;stroke-width:0.258304"
       d="m 248.87576,224.17987 c -5.05145,-0.91962 -9.8836,-2.29941 -13.0883,-3.73726 -2.56281,-1.14985 -5.94944,-3.46634 -7.85815,-5.37505 -2.21747,-2.21747 -3.12016,-3.97252 -3.2702,-6.35805 -0.0997,-1.58557 -0.0384,-1.91864 0.49845,-2.70595 1.41392,-2.0737 4.32666,-3.5942 8.73657,-4.56065 1.8247,-0.39989 3.30823,-0.48072 8.78233,-0.47852 5.76147,0.002 7.00748,0.0782 9.9447,0.6054 8.90466,1.59839 15.10682,4.33559 19.7511,8.71677 5.6778,5.35615 5.07061,8.48146 -2.2071,11.36034 -1.26724,0.50129 -3.64079,1.26875 -5.27456,1.70548 -2.86763,0.76655 -3.18518,0.79667 -9.16979,0.86955 -3.40961,0.0415 -6.48989,0.0226 -6.84505,-0.0421 z"
       id="path36" />
    <path
       style="fill:#db5e28;fill-opacity:1;stroke-width:0.258304"
       d="m 129.6029,288.37193 c -7.54613,-0.45595 -11.27293,-1.73363 -14.82179,-5.08143 -5.65613,-5.33572 -8.38697,-13.44708 -10.67323,-31.70255 -1.82883,-14.60302 -3.27722,-32.52268 -3.63796,-45.00945 l -0.1735,-6.00556 1.25426,-0.002 c 0.68984,-0.001 3.11717,-0.11563 5.39408,-0.25414 4.49279,-0.2733 7.25557,-0.84177 9.41896,-1.93804 6.77724,-3.43428 6.73416,-13.07419 -0.0868,-19.43264 -2.65783,-2.4776 -6.40302,-4.10511 -14.72511,-6.39894 -2.251966,-0.62072 -4.143811,-1.1779 -4.204098,-1.23819 -0.06029,-0.0603 -0.275362,-1.14305 -0.477946,-2.40615 -0.752534,-4.69201 -1.438399,-18.13254 -1.949369,-38.20078 -0.297508,-11.68457 -0.07913,-18.46288 0.666184,-20.67838 0.596436,-1.77294 2.297959,-4.24089 4.709609,-6.83098 6.23862,-6.700249 27.58076,-23.856735 28.22529,-22.689715 0.38648,0.699785 0.92861,7.926498 1.40176,18.686002 1.49223,33.932843 7.59841,120.614123 9.9623,141.421353 1.97929,17.42189 3.83307,22.13289 12.12691,30.81811 4.99972,5.23565 8.43247,7.48373 14.49301,9.49134 3.72832,1.23503 5.39578,2.11028 5.39578,2.83223 0,2.1336 -10.38537,3.89378 -27.38021,4.64057 -6.51918,0.28646 -9.91684,0.28183 -14.9181,-0.0204 z m -4.51995,-42.64682 c 2.29483,-1.06892 4.11245,-4.09816 5.03679,-8.39431 0.72343,-3.36236 0.77366,-10.83739 0.0977,-14.54373 -1.00685,-5.52083 -2.49118,-9.07543 -4.57029,-10.94473 -2.55923,-2.30097 -5.29862,-2.28383 -7.79234,0.0487 -2.35215,2.20016 -3.50834,5.49834 -4.09131,11.67089 -0.82086,8.69145 0.88104,16.74408 4.3146,20.41484 2.35426,2.5169 4.30792,3.0045 7.00483,1.74829 z m -7.8416,-89.59192 c 3.42419,-1.28115 5.3038,-4.93972 6.11639,-11.90525 0.36786,-3.15321 0.184,-8.3269 -0.41643,-11.71807 -1.03092,-5.82264 -3.25686,-10.05362 -5.92967,-11.27091 -1.37233,-0.62501 -3.49685,-0.61921 -4.73594,0.0129 -2.22823,1.13676 -4.24074,4.31247 -5.06007,7.9847 -1.14608,5.13674 -1.09695,13.53726 0.10668,18.24345 0.86097,3.36634 3.39858,7.54843 5.27426,8.69221 1.05397,0.6427 2.86329,0.62749 4.64478,-0.039 z"
       id="path37" />
    <path
       style="fill:#db5e28;fill-opacity:1;stroke-width:0.258304"
       d="m 208.06559,283.75338 c -0.31813,-0.20113 -0.20671,-0.427 0.63673,-1.29076 1.1939,-1.22267 1.75054,-1.41104 6.10503,-2.066 10.40983,-1.56575 31.63964,-2.70862 47.37105,-2.55015 7.16986,0.0722 8.92111,0.15961 9.53817,0.47593 2.65589,1.36145 0.83539,1.6131 -25.16555,3.47864 -30.78768,2.20897 -37.53785,2.55141 -38.48543,1.95234 z"
       id="path38" />
    <path
       style="fill:#db5e28;fill-opacity:1;stroke-width:0.258304"
       d="m 302.02177,277.40564 c -0.42833,-0.44787 -0.16806,-1.17242 0.51661,-1.43818 0.7453,-0.28929 7.50922,-0.72749 11.04249,-0.71539 l 2.06643,0.007 -1.03321,0.38363 c -2.54612,0.94538 -6.30548,1.68158 -9.29894,1.82103 -1.70481,0.0794 -3.18683,0.0532 -3.29338,-0.0582 z"
       id="path39" />
  </g>
</svg>
