<?xml version="1.0" encoding="UTF-8" standalone="no"?>
<!-- Created with Inkscape (http://www.inkscape.org/) -->

<svg
   version="1.1"
   id="svg1"
   width="400"
   height="400"
   viewBox="0 0 400 400"
   sodipodi:docname="PlayedOffMan.svg"
   inkscape:version="1.4.2 (f4327f4, 2025-05-13)"
   xmlns:inkscape="http://www.inkscape.org/namespaces/inkscape"
   xmlns:sodipodi="http://sodipodi.sourceforge.net/DTD/sodipodi-0.dtd"
   xmlns="http://www.w3.org/2000/svg"
   xmlns:svg="http://www.w3.org/2000/svg">
  <defs
     id="defs1" />
  <sodipodi:namedview
     id="namedview1"
     pagecolor="#505050"
     bordercolor="#ffffff"
     borderopacity="1"
     inkscape:showpageshadow="0"
     inkscape:pageopacity="0"
     inkscape:pagecheckerboard="1"
     inkscape:deskcolor="#505050"
     inkscape:zoom="2.7375"
     inkscape:cx="200"
     inkscape:cy="200"
     inkscape:window-width="2560"
     inkscape:window-height="1334"
     inkscape:window-x="2869"
     inkscape:window-y="-11"
     inkscape:window-maximized="1"
     inkscape:current-layer="g1" />
  <g
     inkscape:groupmode="layer"
     inkscape:label="Image"
     id="g1">
    <path
       style="fill:#000000"
       d="m 138.86085,360.62027 c -11.32189,-5.17145 -1.60832,-18.5023 15.90215,-21.824 6.43953,-1.22157 6.43953,-1.22157 12.38956,-23.76805 7.08946,-26.8641 9.19111,-23.52865 -13.93316,-22.11282 -27.9526,1.71144 -36.35876,-0.38472 -46.94983,-11.70743 C 96.877271,271.16685 96.125381,268.24008 93.494751,231.48174 90.190621,185.31251 91.702791,191.04373 81.182841,184.81897 54.948698,169.296 34.808933,139.69352 30.445368,110.2424 28.029655,93.937958 27.61386,92.988238 21.269664,89.284112 9.2048833,82.239963 1.2315903,67.037644 6.0178913,60.204242 c 2.028819,-2.896545 7.4142607,-3.017058 9.9432957,-0.222506 2.872343,3.173904 3.415983,2.337343 1.282859,-1.974084 -4.676823,-9.452698 -2.487649,-17.025916 4.921644,-17.025916 3.703663,0 10.295497,5.450044 10.295497,8.512185 0,0.75338 0.3375,1.578611 0.75,1.833848 0.4125,0.255236 0.75,-3.494737 0.75,-8.333274 0,-24.717137 17.990055,-15.503271 18.691213,9.572974 0.263571,9.426387 0.90218,10.389247 2.761913,4.164267 3.810812,-12.755716 10.297668,-17.369749 15.954528,-11.348293 6.36012,6.770032 0.88588,25.75643 -11.421705,39.614113 -8.985722,10.117444 -5.528862,31.841064 8.444335,53.065934 4.30106,6.53318 18.60466,21.83981 19.44212,20.80548 0.17244,-0.21298 -0.49525,-10.96223 -1.48374,-23.88723 -2.92872,-38.294204 -1.45119,-42.095306 23.752969,-61.106836 32.14929,-24.250258 38.26507,-26.610059 72.34949,-27.91637 13.47988,-0.516627 48.62628,-1.86537 78.1031,-2.997206 64.44643,-2.474582 65.77909,-2.308293 77.56642,9.678721 9.11207,9.266435 9.11519,9.282047 13.84265,69.288121 1.40593,17.84553 2.65534,32.47165 2.77647,32.50248 44.71378,11.37999 57.06527,56.03946 22.41634,81.05109 -5.11823,3.69464 -5.48991,4.22902 -4.86868,7 3.96431,17.68264 -11.30267,32.5926 -27.18859,26.55278 -2.01232,-0.76508 -5.25446,0.0862 -16.86096,4.42708 -7.90327,2.95586 -17.09805,6.17841 -20.43285,7.16122 -6.06325,1.78692 -6.06325,1.78692 -6.65626,17.82292 -0.44352,11.99394 -1.23522,18.80408 -3.14088,27.01776 -1.40133,6.03996 -2.54788,11.04085 -2.54788,11.11309 0,0.0722 2.81266,0.3571 6.25036,0.63305 26.87989,2.15766 31.08053,22.61779 5.00689,24.38715 -37.58942,2.55083 -43.65396,-1.52733 -37.84038,-25.44611 8.61619,-35.44959 7.92619,-51.64081 -2.16687,-50.84684 -4.2625,0.33531 -20.125,1.35616 -35.25,2.26856 -32.8277,1.9803 -27.16523,-3.36617 -37.36291,35.27787 -9.07879,34.404 -9.45038,35.26856 -15.94539,37.0993 -6.73137,1.89737 -35.53026,2.38895 -39.29204,0.6707 z m 19.17365,-78.6831 c 7.89131,-0.64079 13.1599,-1.51052 13.6299,-2.25 1.27326,-2.00327 0.89097,-4.70543 -0.6657,-4.70543 -11.96508,0 -27.07359,-15.39224 -29.44925,-30.00229 -2.3145,-14.2339 -11.20155,-139.5966 -11.46595,-161.741223 -0.0673,-5.63393 -0.2676,-10.24643 -0.44518,-10.25 -4.03566,-0.08114 -32.383369,23.833409 -34.626449,29.211393 -1.97028,4.7239 -0.28426,61.09961 1.90027,63.53947 0.12673,0.14155 4.129829,1.21024 8.895789,2.37489 20.68226,5.05406 20.34463,27.11611 -0.39227,25.63239 -6.739209,-0.48219 -6.739209,-0.48219 -6.299079,5.12659 6.900239,87.93319 6.467649,87.3233 58.917919,83.06421 z m -38.88018,-43.74203 c -8.82242,-9.74865 -5.69217,-37.08336 3.85837,-33.69305 6.25936,2.22199 9.75551,19.15031 5.99089,29.00783 -2.40289,6.29187 -6.59191,8.28456 -9.84926,4.68522 z m -8.56551,-91.03417 c -8.15698,-11.45542 -2.62707,-37.39953 6.71549,-31.5064 4.64211,2.92817 7.58972,17.35556 5.28544,25.87014 -2.2194,8.20093 -8.18103,11.00082 -12.00093,5.63626 z m 134.77661,128.78235 c 29.70497,-2.09931 28.36529,-1.90745 27.1418,-3.88709 -1.51254,-2.44736 -60.97794,0.51702 -63.29603,3.15533 -3.36196,3.82639 -6.683,3.75917 36.15423,0.73176 z m 71.59577,-7.10681 c 1.47008,-0.67376 1.51465,-0.77596 0.16821,-0.3857 -1.00748,0.29201 -4.94498,0.53093 -8.75,0.53093 -6.08275,0 -6.91821,0.22505 -6.91821,1.86359 0,1.92034 9.65805,0.66865 15.5,-2.00882 z m -98.23842,-3.44272 c 5.63113,-0.30131 33.56473,-1.60847 62.07466,-2.90479 62.3393,-2.83451 63.87875,-3.24041 69.23701,-18.25523 2.73292,-7.65816 -8.14553,-167.505922 -12.03279,-176.809436 -3.04002,-7.275799 -10.92521,-13.568637 -19.52498,-15.582073 -3.06385,-0.71733 -79.3303,1.410045 -142.51548,3.975324 -24.53208,0.995987 -30.05315,3.276073 -35.85944,14.809178 -3.27848,6.512072 -3.4455,1.932434 3.87886,106.354977 6.84058,97.52543 2.40831,92.28252 74.74216,88.41205 z m 92.34793,-28.45004 c -9.30318,-8.1683 -5.31133,-26.11929 6.15013,-27.6566 8.44243,-1.13236 14.23288,5.04935 14.23288,15.19459 0,13.19251 -11.52543,20.23907 -20.38301,12.46201 z m -71.14479,-11.38223 c -21.47183,-7.06885 -36.4783,-27.343 -34.01017,-45.94866 1.6282,-12.274 6.49397,-14.59018 21.87884,-10.41467 12.54257,3.40411 30.03603,3.10239 42.16661,-0.72727 21.81741,-6.88782 29.3464,-2.46845 28.25985,16.58799 -1.61113,28.25686 -31.79371,49.22728 -58.29513,40.50261 z m 25.01774,-8.11723 c 13.2078,-3.44019 14.91895,-7.53926 6.24617,-14.96283 -12.83023,-10.98221 -47.811,-11.04286 -47.01734,-0.0815 0.79161,10.93294 23.8665,19.44746 40.77117,15.04435 z m -65.48246,-64.5321 c -11.17564,-4.672 -14.83711,-24.83999 -6.34245,-34.93531 12.01036,-14.2735 28.91316,-0.76717 25.96431,20.74701 -1.50256,10.96238 -10.96743,17.80629 -19.62186,14.1883 z m 88.3516,-3.04764 c -13.13968,-3.70327 -15.57958,-32.05948 -3.30472,-38.40705 11.86098,-6.13355 21.47197,3.36836 20.79852,20.56247 -0.53105,13.55853 -7.4954,20.66252 -17.4938,17.84458 z M 178.81993,97.474206 c -4.05,-10.554129 18.88551,-24.174061 27.98757,-16.620025 3.81877,3.169303 0.85866,7.127555 -5.33023,7.127555 -3.88238,0 -8.18761,2.18722 -14.08044,7.153393 -4.82351,4.065017 -7.62176,4.828147 -8.5769,2.339077 z m 121.72491,-3.903429 c -4.01635,-4.275209 -9.37787,-7.4419 -14.54275,-8.589427 -12.03717,-2.674404 -9.46341,-9.923042 3.0815,-8.678597 10.36141,1.027844 19.75695,8.632537 19.18218,15.525948 -0.39502,4.737755 -4.11757,5.577675 -7.72093,1.742076 z m 69.80402,113.886113 c 6.92089,-7.88245 4.25321,-14.88728 -8.73215,-22.92902 -5.4671,-3.38573 -5.12707,-4.71096 -3.58033,13.95387 0.72925,8.8 1.34816,16.60031 1.37536,17.33403 0.0599,1.61686 6.49944,-3.30463 10.93712,-8.35888 z"
       id="path29" />
  </g>
</svg>
